# xmcd
#
# Track frame offsets:
#	150
#	29404
#	58657
#	81273
#	103889
#	122492
#
# Disc length: 1881 seconds
#
# Revision: 1
# Processed by: cddbd v1.5.1PL2 Copyright (c) Steve Scherf et al.
# Submitted via: EasyCDDAExtractor 7.0.5.4
#
DISCID=4b075706
DTITLE=Karl Pilkington, Ricky Gervais and Steve Merchant - The Ricky Gervais Sho
DTITLE=w S2E6
DYEAR=2006
DGENRE=Comedy
TTITLE0=Part01
TTITLE1=Part02
TTITLE2=Part03
TTITLE3=Part04
TTITLE4=Part05
TTITLE5=Part06
EXTD=
EXTT0=
EXTT1=
EXTT2=
EXTT3=
EXTT4=
EXTT5=
PLAYORDER=
